<svg id="visual" viewBox="0 0 900 600" width="900" height="600" xmlns="http://www.w3.org/2000/svg" xmlns:xlink="http://www.w3.org/1999/xlink" version="1.1"><rect x="0" y="0" width="900" height="600" fill="#001220"></rect><defs><linearGradient id="grad1_0" x1="33.3%" y1="100%" x2="100%" y2="0%"><stop offset="20%" stop-color="#fbae3c" stop-opacity="1"></stop><stop offset="80%" stop-color="#fbae3c" stop-opacity="1"></stop></linearGradient></defs><defs><linearGradient id="grad1_1" x1="33.3%" y1="100%" x2="100%" y2="0%"><stop offset="20%" stop-color="#fbae3c" stop-opacity="1"></stop><stop offset="80%" stop-color="#96446e" stop-opacity="1"></stop></linearGradient></defs><defs><linearGradient id="grad1_2" x1="33.3%" y1="100%" x2="100%" y2="0%"><stop offset="20%" stop-color="#001220" stop-opacity="1"></stop><stop offset="80%" stop-color="#96446e" stop-opacity="1"></stop></linearGradient></defs><defs><linearGradient id="grad2_0" x1="0%" y1="100%" x2="66.7%" y2="0%"><stop offset="20%" stop-color="#fbae3c" stop-opacity="1"></stop><stop offset="80%" stop-color="#fbae3c" stop-opacity="1"></stop></linearGradient></defs><defs><linearGradient id="grad2_1" x1="0%" y1="100%" x2="66.7%" y2="0%"><stop offset="20%" stop-color="#96446e" stop-opacity="1"></stop><stop offset="80%" stop-color="#fbae3c" stop-opacity="1"></stop></linearGradient></defs><defs><linearGradient id="grad2_2" x1="0%" y1="100%" x2="66.7%" y2="0%"><stop offset="20%" stop-color="#96446e" stop-opacity="1"></stop><stop offset="80%" stop-color="#001220" stop-opacity="1"></stop></linearGradient></defs><g transform="translate(900, 600)"><path d="M-432.7 0C-392.9 -46.8 -353.1 -93.6 -325.2 -134.7C-297.3 -175.8 -281.4 -211.3 -259.5 -259.5C-237.6 -307.7 -209.8 -368.7 -165.6 -399.7C-121.3 -430.7 -60.7 -431.7 0 -432.7L0 0Z" fill="#3d3056"></path><path d="M-288.4 0C-261.9 -31.2 -235.4 -62.4 -216.8 -89.8C-198.2 -117.2 -187.6 -140.9 -173 -173C-158.4 -205.2 -139.9 -245.8 -110.4 -266.5C-80.9 -287.1 -40.4 -287.8 0 -288.4L0 0Z" fill="#e1685e"></path><path d="M-144.2 0C-131 -15.6 -117.7 -31.2 -108.4 -44.9C-99.1 -58.6 -93.8 -70.4 -86.5 -86.5C-79.2 -102.6 -69.9 -122.9 -55.2 -133.2C-40.4 -143.6 -20.2 -143.9 0 -144.2L0 0Z" fill="#fbae3c"></path></g><g transform="translate(0, 0)"><path d="M432.7 0C391.7 41.5 350.7 82.9 336.3 139.3C321.8 195.6 333.9 266.9 305.9 305.9C278 345 210 351.9 152.3 367.7C94.6 383.5 47.3 408.1 0 432.7L0 0Z" fill="#3d3056"></path><path d="M288.4 0C261.1 27.6 233.8 55.3 224.2 92.9C214.6 130.4 222.6 177.9 204 204C185.3 230 140 234.6 101.5 245.1C63.1 255.6 31.5 272 0 288.4L0 0Z" fill="#e1685e"></path><path d="M144.2 0C130.6 13.8 116.9 27.6 112.1 46.4C107.3 65.2 111.3 89 102 102C92.7 115 70 117.3 50.8 122.6C31.5 127.8 15.8 136 0 144.2L0 0Z" fill="#fbae3c"></path></g></svg>